<?xml version="1.0" encoding="utf-8"?>
<!-- Svg Vector Icons : http://www.onlinewebfonts.com/icon -->
<!DOCTYPE svg PUBLIC "-//W3C//DTD SVG 1.1//EN" "http://www.w3.org/Graphics/SVG/1.1/DTD/svg11.dtd">
<svg version="1.1" xmlns="http://www.w3.org/2000/svg" xmlns:xlink="http://www.w3.org/1999/xlink" fill="#fff" x="0px" y="0px" viewBox="0 0 1000 1000" enable-background="new 0 0 1000 1000" xml:space="preserve">
<metadata> Svg Vector Icons : http://www.onlinewebfonts.com/icon </metadata>
<g><g><path d="M327.3,305.6c0-95.4,77.3-172.7,172.7-172.7c95.4,0,172.7,77.3,172.7,172.7c0,95.4-77.2,172.7-172.7,172.7C404.6,478.3,327.3,401,327.3,305.6z M989.2,630.7L965.1,486c-4.3-26.2-26.4-48.2-52.1-54.5c-23,20.3-53,32.7-86.1,32.7c-33,0-63.1-12.4-86.1-32.7c-25.8,6.3-47.7,28.3-52.1,54.5l-0.6,3.4c-14.3-13.8-32.1-24.2-51.3-28.9c-36.5,32.3-84.3,52.1-136.9,52.1s-100.4-19.8-136.9-52.1c-19.2,4.7-37,15.1-51.3,28.9l-0.6-3.4c-4.3-26.2-26.4-48.2-52.1-54.5c-22.9,20.3-53,32.7-86.1,32.7c-33.1,0-63.1-12.4-86.1-32.7c-25.7,6.3-47.7,28.3-52.1,54.5L10.8,630.7c-5.2,31.1,16.4,56.5,47.8,56.5h198.3l-15,90.1c-8.2,49.4,26,89.8,76.1,89.8h364.2c50.1,0,84.3-40.5,76.1-89.8l-15-90.1h198.3C972.9,687.1,994.4,661.7,989.2,630.7z M826.9,442.7c60,0,108.6-48.6,108.6-108.6c0-59.9-48.6-108.6-108.6-108.6s-108.5,48.6-108.5,108.6C718.4,394.1,767,442.7,826.9,442.7z M173,442.7c59.9,0,108.5-48.6,108.5-108.6c0-59.9-48.6-108.6-108.5-108.6c-60,0-108.6,48.6-108.6,108.6C64.4,394.1,113.1,442.7,173,442.7z"/></g><g></g><g></g><g></g><g></g><g></g><g></g><g></g><g></g><g></g><g></g><g></g><g></g><g></g><g></g><g></g></g>
</svg>