<?xml version="1.0" encoding="utf-8"?>
<!-- Svg Vector Icons : http://www.onlinewebfonts.com/icon -->
<!DOCTYPE svg PUBLIC "-//W3C//DTD SVG 1.1//EN" "http://www.w3.org/Graphics/SVG/1.1/DTD/svg11.dtd">
<svg version="1.1" xmlns="http://www.w3.org/2000/svg" xmlns:xlink="http://www.w3.org/1999/xlink" fill="#fff" x="0px" y="0px" viewBox="0 0 1000 1000" enable-background="new 0 0 1000 1000" xml:space="preserve">
<metadata> Svg Vector Icons : http://www.onlinewebfonts.com/icon </metadata>
<g><g transform="translate(0.000000,511.000000) scale(0.100000,-0.100000)"><path d="M4654.4,4983.8c-686.3-115.3-1270.7-551.7-1580.2-1172.6c-595.9-1195.7,48.1-2643.2,1338-3016.2c1128.4-328.7,2324.1,336.4,2652.9,1474.4c321,1107.3-301.8,2278-1405.3,2637.5C5352.2,5006.9,4965.9,5037.6,4654.4,4983.8z"/><path d="M4308.4-312.3c-1557.1-123-2654.8-619-3291.1-1487.9c-201.9-276.8-378.7-672.8-446-999.6c-42.3-198-42.3-872.7-1.9-1047.7c78.8-328.7,338.3-653.6,645.9-805.5c299.9-148,38.4-140.3,3848.6-134.6l3406.4,5.8l125,44.2c203.8,73,365.3,175,511.3,321c111.5,111.5,155.7,174.9,224.9,319.1c48.1,100,96.1,226.9,107.7,282.6c32.7,159.6,26.9,842-9.6,1015c-150,734.4-647.8,1395.7-1376.4,1832C7526.4-652.6,6845.9-445,5990.5-341.2C5700.2-304.6,4627.5-287.3,4308.4-312.3z"/></g></g>
</svg>